<svg height="512pt" viewBox="-16 0 512 512" width="512pt" xmlns="http://www.w3.org/2000/svg"><path d="m128 296h-40c-17.671875 0-32-14.328125-32-32v-72c0-101.621094 82.378906-184 184-184s184 82.378906 184 184v72c0 17.671875-14.328125 32-32 32h-40" fill="#434051"/><path d="m280 344c.011719 12.691406 5.082031 24.851562 14.09375 33.785156s21.214844 13.90625 33.90625 13.808594l16 .40625h63.839844c35.433594 0 64.160156 28.726562 64.160156 64.160156v47.839844h-464v-47.839844c0-35.433594 28.726562-64.160156 64.160156-64.160156h63.839844l16-.40625c12.691406.097656 24.894531-4.875 33.90625-13.808594s14.082031-21.09375 14.09375-33.785156v-32h80zm0 0" fill="#f7cca9"/><path d="m281.121094 354.214844c-.742188-3.355469-1.117188-6.777344-1.121094-10.214844v-32h-80v32c-.003906 3.4375-.378906 6.859375-1.121094 10.214844 26.871094 7.714844 55.371094 7.714844 82.242188 0zm0 0" fill="#efbb95"/><path d="m84.800781 160c-16.769531.929688-29.636719 15.226562-28.800781 32-.835938 16.773438 12.03125 31.070312 28.800781 32h19.199219v-64zm0 0" fill="#efbb95"/><path d="m395.199219 160h-19.199219v64h19.199219c16.769531-.929688 29.636719-15.226562 28.800781-32 .835938-16.773438-12.03125-31.070312-28.800781-32zm0 0" fill="#efbb95"/><path d="m240 8 136 120c9.925781 19.914062 15.386719 41.757812 16 64 0 83.949219-68.050781 152-152 152s-152-68.050781-152-152c.613281-22.242188 6.074219-44.085938 16-64z" fill="#f7cca9"/><path d="m272 216c0 17.671875-14.328125 32-32 32s-32-14.328125-32-32zm0 0" fill="#e5703e"/><g fill="#915c39"><path d="m168 192c-8.835938 0-16-7.164062-16-16s7.164062-16 16-16 16 7.164062 16 16-7.164062 16-16 16zm0-16"/><path d="m128 176c-4.417969 0-8-3.582031-8-8 .027344-22.082031 17.917969-39.972656 40-40 4.417969 0 8 3.582031 8 8s-3.582031 8-8 8c-13.253906 0-24 10.746094-24 24 0 4.417969-3.582031 8-8 8zm0 0"/><path d="m312 192c-8.835938 0-16-7.164062-16-16s7.164062-16 16-16 16 7.164062 16 16-7.164062 16-16 16zm0-16"/><path d="m352 176c-4.417969 0-8-3.582031-8-8 0-13.253906-10.746094-24-24-24-4.417969 0-8-3.582031-8-8s3.582031-8 8-8c22.082031.027344 39.972656 17.917969 40 40 0 4.417969-3.582031 8-8 8zm0 0"/></g><path d="m407.839844 392h-63.839844l-16-.40625c-16.316406.0625-31.546875-8.179688-40.414062-21.875-2.96875 6.929688-23.121094 14.28125-47.585938 14.28125s-44.617188-7.351562-47.585938-14.28125c-8.867187 13.695312-24.097656 21.9375-40.414062 21.875l-16 .40625h-63.839844c-35.433594 0-64.160156 28.726562-64.160156 64.160156v47.839844h464v-47.839844c0-35.433594-28.726562-64.160156-64.160156-64.160156zm0 0" fill="#29485a"/><path d="m360 224c0 13.253906-10.746094 24-24 24s-24-10.746094-24-24 10.746094-24 24-24 24 10.746094 24 24zm0 0" fill="#f4b8b2"/><path d="m168 224c0 13.253906-10.746094 24-24 24s-24-10.746094-24-24 10.746094-24 24-24 24 10.746094 24 24zm0 0" fill="#f4b8b2"/><path d="m248 192h-16c-2.464844 0-4.789062-1.136719-6.308594-3.078125-1.515625-1.941406-2.050781-4.476563-1.453125-6.867187l8-32c1.101563-4.253907 5.425781-6.828126 9.691407-5.757813 4.265624 1.066406 6.867187 5.375 5.832031 9.648437l-5.515625 22.054688h5.753906c4.417969 0 8 3.582031 8 8s-3.582031 8-8 8zm0 0" fill="#915c39"/><path d="m184 176c0 8.835938-7.164062 16-16 16s-16-7.164062-16-16 7.164062-16 16-16 16 7.164062 16 16zm0 0"/><path d="m168 136c0-4.417969-3.582031-8-8-8-22.082031.027344-39.972656 17.917969-40 40 0 4.417969 3.582031 8 8 8s8-3.582031 8-8c0-13.253906 10.746094-24 24-24 4.417969 0 8-3.582031 8-8zm0 0"/><path d="m328 176c0 8.835938-7.164062 16-16 16s-16-7.164062-16-16 7.164062-16 16-16 16 7.164062 16 16zm0 0"/><path d="m320 144c13.253906 0 24 10.746094 24 24 0 4.417969 3.582031 8 8 8s8-3.582031 8-8c-.027344-22.082031-17.917969-39.972656-40-40-4.417969 0-8 3.582031-8 8s3.582031 8 8 8zm0 0"/><path d="m280 216c0-4.417969-3.582031-8-8-8h-64c-4.417969 0-8 3.582031-8 8 0 22.089844 17.910156 40 40 40s40-17.910156 40-40zm-62.632812 8h45.265624c-3.386718 9.597656-12.457031 16.011719-22.632812 16.011719s-19.246094-6.414063-22.632812-16.011719zm0 0"/><path d="m407.839844 384h-63.640625l-16.199219-.40625c-21.71875.074219-39.492188-17.277344-39.9375-38.992188 24.996094-7.929687 47.660156-21.871093 66.007812-40.601562h37.929688c22.082031-.027344 39.972656-17.917969 40-40v-72c-.125-105.988281-86.011719-191.875-192-192-105.988281.125-191.875 86.011719-192 192 0 1.511719.222656 2.945312.359375 4.40625h-.359375v67.59375c.027344 22.082031 17.917969 39.972656 40 40h37.929688c18.347656 18.730469 41.011718 32.671875 66.007812 40.601562-.472656 21.78125-18.351562 39.148438-40.136719 38.992188l-15.800781.40625h-63.839844c-39.835937.042969-72.1171872 32.324219-72.160156 72.160156v47.839844c0 4.417969 3.582031 8 8 8h464c4.417969 0 8-3.582031 8-8v-47.839844c-.042969-39.835937-32.324219-72.117187-72.160156-72.160156zm-15.839844-96h-24.304688c12.605469-16.710938 21.792969-35.738281 27.039063-56h5.265625c5.796875-.105469 11.402344-2.066406 16-5.601562v37.601562c0 13.253906-10.746094 24-24 24zm8-72h-2c1.269531-7.9375 1.941406-15.960938 2-24-.019531-8.054688-.785156-16.089844-2.296875-24h2.296875c8.671875 0 16 10.992188 16 24s-7.328125 24-16 24zm12.054688-61c-3.722657-1.945312-7.855469-2.972656-12.054688-3h-6.222656c-2.851563-9.363281-6.367188-18.511719-10.519532-27.375-.46875-1-1.136718-1.894531-1.960937-2.625l-118.394531-104.464844c73.722656 9.804688 133.382812 64.785156 149.152344 137.464844zm-194.957032-137.464844-118.394531 104.464844c-.824219.730469-1.492187 1.625-1.960937 2.625-4.152344 8.863281-7.667969 18.011719-10.519532 27.375h-6.222656c-4.199219.027344-8.332031 1.054688-12.054688 3 15.769532-72.679688 75.429688-127.660156 149.152344-137.464844zm-137.097656 150.464844h2.296875c-1.511719 7.910156-2.277344 15.945312-2.296875 24 .058594 8.039062.730469 16.0625 2 24h-2c-8.671875 0-16-10.992188-16-24s7.328125-24 16-24zm8 120c-13.253906 0-24-10.746094-24-24v-37.601562c4.597656 3.535156 10.203125 5.496093 16 5.601562h5.265625c5.246094 20.261719 14.433594 39.289062 27.039063 56zm8-96c.53125-20.527344 5.5-40.695312 14.558594-59.121094l129.441406-114.207031 129.441406 114.207031c9.058594 18.425782 14.027344 38.59375 14.558594 59.121094 0 79.527344-64.472656 144-144 144s-144-64.472656-144-144zm144 160c10.828125.003906 21.632812-1.089844 32.238281-3.265625.59375 6.8125 2.449219 13.457031 5.480469 19.585937-11.769531 5.5625-24.710938 8.195313-37.71875 7.679688-13.007812.519531-25.949219-2.117188-37.71875-7.679688 3.03125-6.128906 4.886719-12.773437 5.480469-19.585937 10.605469 2.175781 21.410156 3.269531 32.238281 3.265625zm224 144h-448v-39.839844c.035156-31 25.160156-56.125 56.160156-56.160156h64l15.839844-.40625c15.679688 0 30.640625-6.574219 41.246094-18.121094 14.476562 7.316406 30.539062 10.933594 46.753906 10.527344 16.207031.410156 32.265625-3.207031 46.734375-10.519531 10.546875 11.523437 25.445313 18.09375 41.066406 18.113281l16.199219.40625h63.839844c31 .035156 56.125 25.160156 56.160156 56.160156zm0 0"/><path d="m232 192h16c4.417969 0 8-3.582031 8-8s-3.582031-8-8-8h-5.753906l5.515625-22.0625c.765625-2.800781-.042969-5.796875-2.113281-7.828125-2.074219-2.03125-5.082032-2.785156-7.867188-1.960937-2.785156.820312-4.902344 3.085937-5.542969 5.914062l-8 32c-.59375 2.390625-.058593 4.921875 1.457031 6.863281 1.515626 1.9375 3.84375 3.074219 6.304688 3.074219zm0 0"/></svg>