<svg height="480pt" viewBox="-16 0 480 480.00185" width="480pt" xmlns="http://www.w3.org/2000/svg"><path d="m8 8v304h168l48 160 48-160h168v-304zm0 0" fill="#b09dda"/><path d="m224 139.199219c0-24.300781-19.699219-44-44-44s-44 19.699219-44 44c0 23.855469 63.695312 100.800781 88 100.800781s88-76.945312 88-100.800781c0-24.300781-19.699219-44-44-44s-44 19.699219-44 44" fill="#eb3936"/><path d="m0 8v304c0 4.417969 3.582031 8 8 8h162.050781l46.285157 154.296875c1.015624 3.386719 4.128906 5.703125 7.664062 5.703125s6.652344-2.316406 7.664062-5.703125l46.289063-154.296875h162.046875c4.417969 0 8-3.582031 8-8v-304c0-4.417969-3.582031-8-8-8h-432c-4.417969 0-8 3.582031-8 8zm16 8h416v288h-160c-3.535156 0-6.648438 2.320312-7.664062 5.703125l-40.335938 134.457031-40.335938-134.457031c-1.011718-3.382813-4.128906-5.703125-7.664062-5.703125h-160zm0 0"/><path d="m224 248c29.207031 0 96-81.007812 96-108.800781-.253906-28.484375-23.515625-51.386719-52-51.199219-17.785156-.039062-34.367188 8.984375-44 23.9375-9.632812-14.953125-26.210938-23.976562-44-23.9375-28.484375-.1875-51.742188 22.714844-52 51.199219 0 27.792969 66.792969 108.800781 96 108.800781zm-44-144c19.652344-.195312 35.753906 15.550781 36 35.199219 0 4.417969 3.582031 8 8 8s8-3.582031 8-8c0-19.882813 16.117188-36 36-36s36 16.117187 36 36c0 20.800781-62.054688 92.800781-80 92.800781-17.941406 0-80-72-80-92.800781.246094-19.648438 16.351562-35.394531 36-35.199219zm0 0"/></svg>