<svg height="480pt" viewBox="0 0 480 480" width="480pt" xmlns="http://www.w3.org/2000/svg"><path d="m472 104v208h-464v-208c0-17.671875 14.328125-32 32-32h400c2.421875.019531 4.832031.289062 7.199219.800781 14.527343 3.351563 24.808593 16.292969 24.800781 31.199219zm0 0" fill="#78b9eb"/><path d="m472 104v208h-264l239.199219-239.199219c14.527343 3.351563 24.808593 16.292969 24.800781 31.199219zm0 0" fill="#5aaae7"/><path d="m472 312v32c0 17.671875-14.328125 32-32 32h-400c-17.671875 0-32-14.328125-32-32v-32zm0 0" fill="#acabb1"/><path d="m408 72v192c-.027344 8.824219-7.175781 15.972656-16 16h-304c-8.824219-.027344-15.972656-7.175781-16-16v-208h336zm0 0" fill="#ffde55"/><path d="m408 24v32h-336v-32c.027344-8.824219 7.175781-15.972656 16-16h304c8.824219.027344 15.972656 7.175781 16 16zm0 0" fill="#ff7956"/><path d="m328 448v24h-176v-24c0-4.417969 3.582031-8 8-8h160c4.417969 0 8 3.582031 8 8zm0 0" fill="#787680"/><path d="m304 440h-128l8-64h112zm0 0" fill="#898890"/><path d="m298 392h-116l2-16h112zm0 0" fill="#787680"/><path d="m408 56v208c-.027344 8.824219-7.175781 15.972656-16 16h-272l224-224zm0 0" fill="#ffcd00"/><path d="m440 64h-24v-40c0-13.253906-10.746094-24-24-24h-304c-13.253906 0-24 10.746094-24 24v40h-24c-22.082031.027344-39.9726562 17.917969-40 40v240c.0273438 22.082031 17.917969 39.972656 40 40h134.9375l-6 48h-8.9375c-8.835938 0-16 7.164062-16 16v16h-16v16h224v-16h-16v-16c0-8.835938-7.164062-16-16-16h-8.9375l-6-48h134.9375c22.082031-.027344 39.972656-17.917969 40-40v-240c-.027344-22.082031-17.917969-39.972656-40-40zm-360 0h320v200c0 4.417969-3.582031 8-8 8h-304c-4.417969 0-8-3.582031-8-8zm8-48h304c4.417969 0 8 3.582031 8 8v24h-320v-24c0-4.417969 3.582031-8 8-8zm-48 64h24v184c0 13.253906 10.746094 24 24 24h304c13.253906 0 24-10.746094 24-24v-184h24c13.253906 0 24 10.746094 24 24v200h-448v-200c0-13.253906 10.746094-24 24-24zm280 384h-160v-16h160zm-25.0625-32h-109.875l6-48h97.875zm145.0625-64h-400c-13.253906 0-24-10.746094-24-24v-24h448v24c0 13.253906-10.746094 24-24 24zm0 0"/><path d="m424 336h16v16h-16zm0 0"/><path d="m96 24h16v16h-16zm0 0"/><path d="m128 24h16v16h-16zm0 0"/><path d="m160 24h16v16h-16zm0 0"/><path d="m186.34375 149.65625 11.3125-11.3125-18.34375-18.34375 18.34375-18.34375-11.3125-11.3125-24 24c-3.121094 3.125-3.121094 8.1875 0 11.3125zm0 0"/><path d="m293.65625 149.65625 24-24c3.121094-3.125 3.121094-8.1875 0-11.3125l-24-24-11.3125 11.3125 18.34375 18.34375-18.34375 18.34375zm0 0"/><path d="m216.566406 157.027344 32.007813-79.996094 14.863281 5.945312-32.007812 79.996094zm0 0"/><path d="m144 176h16v16h-16zm0 0"/><path d="m176 176h48v16h-48zm0 0"/><path d="m160 208h32v16h-32zm0 0"/><path d="m208 208h32v16h-32zm0 0"/><path d="m128 240h96v16h-96zm0 0"/></svg>