<svg height="480pt" viewBox="-72 0 480 480.27436" width="480pt" xmlns="http://www.w3.org/2000/svg"><path d="m248.136719 184h-96l64-176h96zm0 0" fill="#a5181d"/><path d="m120.136719 8h-96l64 176h96zm0 0" fill="#dc2027"/><path d="m328.136719 312c0 88.367188-71.632813 160-160 160-88.363281 0-160-71.632812-160-160s71.636719-160 160-160c88.367187 0 160 71.632812 160 160zm0 0" fill="#fb9e55"/><path d="m296.136719 312c0 70.691406-57.308594 128-128 128-70.691407 0-128-57.308594-128-128s57.308593-128 128-128c70.691406 0 128 57.308594 128 128zm0 0" fill="#fdd020"/><path d="m.136719 312c-.13281275 80.960938 57.496093 150.5 137.074219 165.402344 79.578124 14.90625 158.464843-29.066406 187.640624-104.589844 29.171876-75.519531.335938-161.105469-68.59375-203.574219l63.3125-158.261719c.988282-2.464843.6875-5.261718-.800781-7.460937-1.492187-2.199219-3.976562-3.51953125-6.632812-3.515625h-96c-3.269531-.00390625-6.214844 1.988281-7.429688 5.023438l-40.570312 101.433593-40.566407-101.433593c-1.21875-3.035157-4.160156-5.02734425-7.433593-5.023438h-96c-2.65625-.00390625-5.140625 1.316406-6.628907 3.515625-1.492187 2.199219-1.789062 4.996094-.800781 7.460937l63.308594 158.261719c-49.578125 30.519531-79.804687 84.542969-79.878906 142.761719zm221.417969-296h78.765624l-58.167968 145.414062c-18.367188-9.113281-38.265625-14.753906-58.6875-16.636718l-6.710938-16.777344zm-185.601563 0h78.769531l46.0625 115.144531 5.183594 12.960938c-24.941406.316406-49.496094 6.230469-71.847656 17.300781zm132.183594 144c83.949219 0 152 68.050781 152 152s-68.050781 152-152 152c-83.945313 0-152-68.050781-152-152 .09375-83.910156 68.089843-151.90625 152-152zm0 0"/><path d="m168.136719 448c75.113281 0 136-60.890625 136-136s-60.886719-136-136-136c-75.109375 0-136 60.890625-136 136 .085937 75.074219 60.925781 135.917969 136 136zm0-256c66.273437 0 120 53.726562 120 120s-53.726563 120-120 120c-66.273438 0-120-53.726562-120-120 .074219-66.242188 53.757812-119.925781 120-120zm0 0"/></svg>